<svg width="142" height="29" viewBox="0 0 142 29" fill="none" xmlns="http://www.w3.org/2000/svg">
<path d="M23.032 23V5.54545H27.2507V12.9261H27.4808L33.2507 5.54545H38.2195L32.032 13.3352L38.3303 23H33.2848L28.9382 16.1392L27.2507 18.2699V23H23.032ZM45.0334 23.2472C43.6584 23.2472 42.4766 22.9659 41.4879 22.4034C40.505 21.8352 39.7464 21.0455 39.2124 20.0341C38.6839 19.017 38.4197 17.8381 38.4197 16.4972C38.4197 15.1506 38.6839 13.9716 39.2124 12.9602C39.7464 11.9432 40.505 11.1534 41.4879 10.5909C42.4766 10.0227 43.6584 9.73864 45.0334 9.73864C46.4084 9.73864 47.5874 10.0227 48.5703 10.5909C49.5589 11.1534 50.3175 11.9432 50.8459 12.9602C51.38 13.9716 51.647 15.1506 51.647 16.4972C51.647 17.8381 51.38 19.017 50.8459 20.0341C50.3175 21.0455 49.5589 21.8352 48.5703 22.4034C47.5874 22.9659 46.4084 23.2472 45.0334 23.2472ZM45.0589 20.1023C45.5589 20.1023 45.9822 19.9489 46.3288 19.642C46.6754 19.3352 46.9396 18.9091 47.1214 18.3636C47.3089 17.8182 47.4027 17.1875 47.4027 16.4716C47.4027 15.7443 47.3089 15.108 47.1214 14.5625C46.9396 14.017 46.6754 13.5909 46.3288 13.2841C45.9822 12.9773 45.5589 12.8239 45.0589 12.8239C44.5419 12.8239 44.1044 12.9773 43.7464 13.2841C43.3942 13.5909 43.1243 14.017 42.9368 14.5625C42.755 15.108 42.6641 15.7443 42.6641 16.4716C42.6641 17.1875 42.755 17.8182 42.9368 18.3636C43.1243 18.9091 43.3942 19.3352 43.7464 19.642C44.1044 19.9489 44.5419 20.1023 45.0589 20.1023ZM58.5632 23.1875C57.5973 23.1875 56.7195 22.9375 55.9297 22.4375C55.1399 21.9375 54.5092 21.1875 54.0376 20.1875C53.5661 19.1875 53.3303 17.946 53.3303 16.4631C53.3303 14.9233 53.5746 13.6562 54.0632 12.6619C54.5518 11.6676 55.1911 10.9318 55.9808 10.4545C56.7763 9.97727 57.6314 9.73864 58.5462 9.73864C59.2337 9.73864 59.8217 9.85795 60.3104 10.0966C60.799 10.3295 61.2024 10.6307 61.5206 11C61.8388 11.3693 62.0803 11.7528 62.245 12.1506H62.3303V5.54545H66.4979V23H62.3729V20.8778H62.245C62.0689 21.2812 61.8189 21.6591 61.495 22.0114C61.1712 22.3636 60.7649 22.6477 60.2763 22.8636C59.7933 23.0795 59.2223 23.1875 58.5632 23.1875ZM60.0121 19.9403C60.5178 19.9403 60.9496 19.7983 61.3075 19.5142C61.6655 19.2244 61.9411 18.8182 62.1342 18.2955C62.3274 17.7727 62.424 17.1591 62.424 16.4545C62.424 15.7386 62.3274 15.1222 62.1342 14.6051C61.9467 14.0881 61.6712 13.6903 61.3075 13.4119C60.9496 13.1335 60.5178 12.9943 60.0121 12.9943C59.495 12.9943 59.0575 13.1364 58.6996 13.4205C58.3416 13.7045 58.0689 14.1051 57.8814 14.6222C57.6996 15.1392 57.6087 15.75 57.6087 16.4545C57.6087 17.1591 57.7024 17.7727 57.8899 18.2955C58.0774 18.8182 58.3473 19.2244 58.6996 19.5142C59.0575 19.7983 59.495 19.9403 60.0121 19.9403ZM75.2528 23.2472C73.8835 23.2472 72.7017 22.9773 71.7074 22.4375C70.7188 21.892 69.9574 21.1165 69.4233 20.1108C68.8949 19.0994 68.6307 17.8977 68.6307 16.5057C68.6307 15.1534 68.8977 13.9716 69.4318 12.9602C69.9659 11.9432 70.7188 11.1534 71.6903 10.5909C72.6619 10.0227 73.8068 9.73864 75.125 9.73864C76.0568 9.73864 76.9091 9.88352 77.6818 10.1733C78.4545 10.4631 79.1222 10.892 79.6847 11.4602C80.2472 12.0284 80.6847 12.7301 80.9972 13.5653C81.3097 14.3949 81.4659 15.3466 81.4659 16.4205V17.4602H70.0881V15.0398H77.5881C77.5824 14.5966 77.4773 14.2017 77.2727 13.8551C77.0682 13.5085 76.7869 13.2386 76.429 13.0455C76.0767 12.8466 75.6705 12.7472 75.2102 12.7472C74.7443 12.7472 74.3267 12.8523 73.9574 13.0625C73.5881 13.267 73.2955 13.5483 73.0795 13.9062C72.8636 14.2585 72.75 14.6591 72.7386 15.108V17.571C72.7386 18.1051 72.8438 18.5739 73.054 18.9773C73.2642 19.375 73.5625 19.6847 73.9489 19.9062C74.3352 20.1278 74.7955 20.2386 75.3295 20.2386C75.6989 20.2386 76.0341 20.1875 76.3352 20.0852C76.6364 19.983 76.8949 19.8324 77.1108 19.6335C77.3267 19.4347 77.4886 19.1903 77.5966 18.9006L81.4233 19.0114C81.2642 19.8693 80.9148 20.6165 80.375 21.2528C79.8409 21.8835 79.1392 22.375 78.2699 22.7273C77.4006 23.0739 76.3949 23.2472 75.2528 23.2472Z" fill="#FF0000"/>
<path d="M83.5945 23V5.54545H90.8729C92.1797 5.54545 93.2734 5.73011 94.1541 6.09943C95.0405 6.46875 95.7053 6.98579 96.1484 7.65057C96.5973 8.31534 96.8217 9.08523 96.8217 9.96023C96.8217 10.625 96.6825 11.2188 96.4041 11.7415C96.1257 12.2585 95.7422 12.6875 95.2536 13.0284C94.7649 13.3693 94.1996 13.608 93.5575 13.7443V13.9148C94.2621 13.9489 94.9126 14.1392 95.5092 14.4858C96.1115 14.8324 96.5945 15.3153 96.9581 15.9347C97.3217 16.5483 97.5036 17.2756 97.5036 18.1165C97.5036 19.054 97.2649 19.892 96.7876 20.6307C96.3104 21.3636 95.62 21.9432 94.7166 22.3693C93.8132 22.7898 92.7166 23 91.4268 23H83.5945ZM87.8132 19.5994H90.4212C91.3359 19.5994 92.0092 19.4261 92.4411 19.0795C92.8786 18.733 93.0973 18.25 93.0973 17.6307C93.0973 17.1818 92.9922 16.7955 92.782 16.4716C92.5717 16.142 92.2734 15.8892 91.8871 15.7131C91.5007 15.5312 91.0376 15.4403 90.4979 15.4403H87.8132V19.5994ZM87.8132 12.7216H90.1484C90.6087 12.7216 91.0178 12.6449 91.3757 12.4915C91.7337 12.3381 92.0121 12.1165 92.2109 11.8267C92.4155 11.5369 92.5178 11.1875 92.5178 10.7784C92.5178 10.1932 92.3104 9.73295 91.8956 9.39773C91.4808 9.0625 90.9212 8.89489 90.2166 8.89489H87.8132V12.7216ZM103.7 5.54545V23H99.532V5.54545H103.7ZM112.463 23.2472C111.088 23.2472 109.906 22.9659 108.918 22.4034C107.935 21.8352 107.176 21.0455 106.642 20.0341C106.114 19.017 105.849 17.8381 105.849 16.4972C105.849 15.1506 106.114 13.9716 106.642 12.9602C107.176 11.9432 107.935 11.1534 108.918 10.5909C109.906 10.0227 111.088 9.73864 112.463 9.73864C113.838 9.73864 115.017 10.0227 116 10.5909C116.989 11.1534 117.747 11.9432 118.276 12.9602C118.81 13.9716 119.077 15.1506 119.077 16.4972C119.077 17.8381 118.81 19.017 118.276 20.0341C117.747 21.0455 116.989 21.8352 116 22.4034C115.017 22.9659 113.838 23.2472 112.463 23.2472ZM112.489 20.1023C112.989 20.1023 113.412 19.9489 113.759 19.642C114.105 19.3352 114.369 18.9091 114.551 18.3636C114.739 17.8182 114.832 17.1875 114.832 16.4716C114.832 15.7443 114.739 15.108 114.551 14.5625C114.369 14.017 114.105 13.5909 113.759 13.2841C113.412 12.9773 112.989 12.8239 112.489 12.8239C111.972 12.8239 111.534 12.9773 111.176 13.2841C110.824 13.5909 110.554 14.017 110.366 14.5625C110.185 15.108 110.094 15.7443 110.094 16.4716C110.094 17.1875 110.185 17.8182 110.366 18.3636C110.554 18.9091 110.824 19.3352 111.176 19.642C111.534 19.9489 111.972 20.1023 112.489 20.1023ZM127.314 28.1818C126.07 28.1818 125.004 28.0085 124.118 27.6619C123.232 27.3153 122.536 26.8409 122.03 26.2386C121.524 25.6364 121.22 24.9545 121.118 24.1932L125.064 23.9716C125.138 24.2386 125.274 24.4716 125.473 24.6705C125.678 24.8693 125.942 25.0227 126.266 25.1307C126.595 25.2386 126.982 25.2926 127.425 25.2926C128.124 25.2926 128.7 25.1222 129.155 24.7812C129.615 24.446 129.845 23.858 129.845 23.017V20.7159H129.7C129.536 21.1193 129.286 21.4801 128.95 21.7983C128.615 22.1165 128.197 22.3665 127.697 22.5483C127.203 22.7301 126.635 22.821 125.993 22.821C125.038 22.821 124.163 22.5994 123.368 22.1562C122.578 21.7074 121.945 21.0142 121.467 20.0767C120.996 19.1335 120.76 17.9205 120.76 16.4375C120.76 14.9091 121.004 13.6506 121.493 12.6619C121.982 11.6676 122.621 10.9318 123.411 10.4545C124.206 9.97727 125.061 9.73864 125.976 9.73864C126.663 9.73864 127.251 9.85795 127.74 10.0966C128.234 10.3295 128.641 10.6307 128.959 11C129.277 11.3693 129.518 11.7528 129.683 12.1506H129.803V9.90909H133.953V23.0511C133.953 24.1591 133.675 25.0938 133.118 25.8551C132.561 26.6165 131.783 27.1932 130.783 27.5852C129.783 27.983 128.626 28.1818 127.314 28.1818ZM127.442 19.7869C127.947 19.7869 128.379 19.6534 128.737 19.3864C129.095 19.1193 129.371 18.7358 129.564 18.2358C129.757 17.7358 129.854 17.1364 129.854 16.4375C129.854 15.7273 129.757 15.1165 129.564 14.6051C129.376 14.0881 129.101 13.6903 128.737 13.4119C128.379 13.1335 127.947 12.9943 127.442 12.9943C126.925 12.9943 126.487 13.1364 126.129 13.4205C125.771 13.7045 125.499 14.1051 125.311 14.6222C125.129 15.1335 125.038 15.7386 125.038 16.4375C125.038 17.1364 125.132 17.7358 125.32 18.2358C125.507 18.7358 125.777 19.1193 126.129 19.3864C126.487 19.6534 126.925 19.7869 127.442 19.7869Z" fill="#0077FF"/>
<rect x="0.5" y="5.5" width="15" height="15" rx="4.5" fill="#FFA600" stroke="white"/>
<rect x="4.5" y="8.5" width="15" height="15" rx="4.5" fill="#FFA600" stroke="white"/>
</svg>
